<mxfile host="app.diagrams.net" modified="2022-12-17T14:08:24.525Z" agent="5.0 (Windows NT 10.0; Win64; x64) AppleWebKit/537.36 (KHTML, like Gecko) Chrome/108.0.0.0 Safari/537.36" etag="qX2_Kbcqdxv55CLjfSBv" version="20.7.4" type="github">
  <diagram id="J1XZ8u2ks3DEI3PEI3yP" name="Seite-1">
    <mxGraphModel dx="6012" dy="2890" grid="1" gridSize="10" guides="1" tooltips="1" connect="1" arrows="1" fold="1" page="1" pageScale="1" pageWidth="827" pageHeight="1169" math="0" shadow="0">
      <root>
        <mxCell id="0" />
        <mxCell id="1" parent="0" />
        <mxCell id="6ZZ4I7emw9X15yYqETEI-4" style="edgeStyle=orthogonalEdgeStyle;rounded=0;orthogonalLoop=1;jettySize=auto;html=1;entryX=0.5;entryY=0;entryDx=0;entryDy=0;fontSize=18;" parent="1" source="6ZZ4I7emw9X15yYqETEI-1" target="6ZZ4I7emw9X15yYqETEI-2" edge="1">
          <mxGeometry relative="1" as="geometry" />
        </mxCell>
        <mxCell id="6ZZ4I7emw9X15yYqETEI-1" value="&#xa;&lt;span data-lucid-content=&quot;{&amp;quot;t&amp;quot;:&amp;quot;Der Support MA nimmt das Anliegen des Kunden per Telefon oder E-Mail an.&amp;quot;,&amp;quot;m&amp;quot;:[{&amp;quot;s&amp;quot;:0,&amp;quot;n&amp;quot;:&amp;quot;a&amp;quot;,&amp;quot;v&amp;quot;:&amp;quot;center&amp;quot;},{&amp;quot;s&amp;quot;:0,&amp;quot;n&amp;quot;:&amp;quot;s&amp;quot;,&amp;quot;v&amp;quot;:22.22222222222222,&amp;quot;e&amp;quot;:72},{&amp;quot;s&amp;quot;:0,&amp;quot;n&amp;quot;:&amp;quot;c&amp;quot;,&amp;quot;v&amp;quot;:&amp;quot;333333ff&amp;quot;,&amp;quot;e&amp;quot;:72}]}&quot; data-lucid-type=&quot;application/vnd.lucid.text&quot;&gt;&lt;span style=&quot;color:#333333;font-size:16.666666666666664px;&quot;&gt;Der Support MA nimmt das Anliegen des Kunden per Telefon oder E-Mail an.&lt;/span&gt;&lt;/span&gt;&#xa;&#xa;" style="shape=hexagon;perimeter=hexagonPerimeter2;whiteSpace=wrap;html=1;fixedSize=1;strokeWidth=2.3;fillColor=#dae8fc;strokeColor=#6c8ebf;" parent="1" vertex="1">
          <mxGeometry x="154" y="40" width="260" height="140" as="geometry" />
        </mxCell>
        <mxCell id="6ZZ4I7emw9X15yYqETEI-5" style="edgeStyle=orthogonalEdgeStyle;rounded=0;orthogonalLoop=1;jettySize=auto;html=1;entryX=0.5;entryY=0;entryDx=0;entryDy=0;fontSize=18;" parent="1" source="6ZZ4I7emw9X15yYqETEI-2" target="6ZZ4I7emw9X15yYqETEI-3" edge="1">
          <mxGeometry relative="1" as="geometry" />
        </mxCell>
        <mxCell id="6ZZ4I7emw9X15yYqETEI-2" value="&lt;span data-lucid-content=&quot;{&amp;quot;t&amp;quot;:&amp;quot;Der Support MA teilt das Anliegen in eines der Folgenden drei Bereiche ein:&amp;quot;,&amp;quot;m&amp;quot;:[{&amp;quot;s&amp;quot;:0,&amp;quot;n&amp;quot;:&amp;quot;a&amp;quot;,&amp;quot;v&amp;quot;:&amp;quot;center&amp;quot;},{&amp;quot;s&amp;quot;:0,&amp;quot;n&amp;quot;:&amp;quot;s&amp;quot;,&amp;quot;v&amp;quot;:22.22222222222222,&amp;quot;e&amp;quot;:75},{&amp;quot;s&amp;quot;:0,&amp;quot;n&amp;quot;:&amp;quot;c&amp;quot;,&amp;quot;v&amp;quot;:&amp;quot;333333ff&amp;quot;,&amp;quot;e&amp;quot;:75}]}&quot; data-lucid-type=&quot;application/vnd.lucid.text&quot;&gt;&lt;span style=&quot;color:#333333;font-size:16.666666666666664px;&quot;&gt;Der Support MA teilt das Anliegen in eines der Folgenden drei Bereiche ein:&lt;/span&gt;&lt;/span&gt;" style="rounded=1;whiteSpace=wrap;html=1;strokeWidth=2.3;fillColor=#ffe6cc;strokeColor=#d79b00;" parent="1" vertex="1">
          <mxGeometry x="154" y="240" width="260" height="120" as="geometry" />
        </mxCell>
        <mxCell id="6ZZ4I7emw9X15yYqETEI-7" style="edgeStyle=orthogonalEdgeStyle;rounded=0;orthogonalLoop=1;jettySize=auto;html=1;entryX=0.5;entryY=0;entryDx=0;entryDy=0;fontSize=18;" parent="1" source="6ZZ4I7emw9X15yYqETEI-3" target="6ZZ4I7emw9X15yYqETEI-6" edge="1">
          <mxGeometry relative="1" as="geometry" />
        </mxCell>
        <mxCell id="6ZZ4I7emw9X15yYqETEI-27" value="" style="edgeStyle=orthogonalEdgeStyle;rounded=0;orthogonalLoop=1;jettySize=auto;html=1;fontSize=18;" parent="1" source="6ZZ4I7emw9X15yYqETEI-3" target="6ZZ4I7emw9X15yYqETEI-20" edge="1">
          <mxGeometry relative="1" as="geometry" />
        </mxCell>
        <mxCell id="6ZZ4I7emw9X15yYqETEI-44" style="edgeStyle=orthogonalEdgeStyle;rounded=0;orthogonalLoop=1;jettySize=auto;html=1;entryX=0.5;entryY=0;entryDx=0;entryDy=0;" parent="1" source="6ZZ4I7emw9X15yYqETEI-3" target="6ZZ4I7emw9X15yYqETEI-43" edge="1">
          <mxGeometry relative="1" as="geometry" />
        </mxCell>
        <mxCell id="6ZZ4I7emw9X15yYqETEI-3" value="&lt;font style=&quot;font-size: 18px;&quot;&gt;XOR&lt;/font&gt;" style="ellipse;whiteSpace=wrap;html=1;aspect=fixed;strokeWidth=2.3;" parent="1" vertex="1">
          <mxGeometry x="249" y="430" width="70" height="70" as="geometry" />
        </mxCell>
        <mxCell id="6ZZ4I7emw9X15yYqETEI-16" style="edgeStyle=orthogonalEdgeStyle;rounded=0;orthogonalLoop=1;jettySize=auto;html=1;entryX=0.5;entryY=0;entryDx=0;entryDy=0;fontSize=18;" parent="1" source="6ZZ4I7emw9X15yYqETEI-6" target="6ZZ4I7emw9X15yYqETEI-8" edge="1">
          <mxGeometry relative="1" as="geometry" />
        </mxCell>
        <mxCell id="6ZZ4I7emw9X15yYqETEI-6" value="&lt;span data-lucid-content=&quot;{&amp;quot;t&amp;quot;:&amp;quot;Das Anliegen ist eine Neuanforderung.&amp;quot;,&amp;quot;m&amp;quot;:[{&amp;quot;s&amp;quot;:0,&amp;quot;n&amp;quot;:&amp;quot;a&amp;quot;,&amp;quot;v&amp;quot;:&amp;quot;center&amp;quot;},{&amp;quot;s&amp;quot;:0,&amp;quot;n&amp;quot;:&amp;quot;s&amp;quot;,&amp;quot;v&amp;quot;:22.22222222222222,&amp;quot;e&amp;quot;:37},{&amp;quot;s&amp;quot;:0,&amp;quot;n&amp;quot;:&amp;quot;c&amp;quot;,&amp;quot;v&amp;quot;:&amp;quot;333333ff&amp;quot;,&amp;quot;e&amp;quot;:37}]}&quot; data-lucid-type=&quot;application/vnd.lucid.text&quot;&gt;&lt;span style=&quot;color:#333333;font-size:16.666666666666664px;&quot;&gt;Das Anliegen ist eine Neuanforderung.&lt;/span&gt;&lt;/span&gt;" style="shape=hexagon;perimeter=hexagonPerimeter2;whiteSpace=wrap;html=1;fixedSize=1;strokeWidth=2.3;fillColor=#dae8fc;strokeColor=#6c8ebf;" parent="1" vertex="1">
          <mxGeometry x="-170" y="540" width="260" height="140" as="geometry" />
        </mxCell>
        <mxCell id="6ZZ4I7emw9X15yYqETEI-17" style="edgeStyle=orthogonalEdgeStyle;rounded=0;orthogonalLoop=1;jettySize=auto;html=1;entryX=0.579;entryY=-0.038;entryDx=0;entryDy=0;entryPerimeter=0;fontSize=18;" parent="1" source="6ZZ4I7emw9X15yYqETEI-8" target="6ZZ4I7emw9X15yYqETEI-11" edge="1">
          <mxGeometry relative="1" as="geometry" />
        </mxCell>
        <UserObject label="Der Support MA versteht das Anliegen des Kunden und hÃ¤lt alle Informationen in einem KOS fest." lucidchartObjectId="3NAeWaVlPR9_" id="6ZZ4I7emw9X15yYqETEI-8">
          <mxCell style="html=1;overflow=block;blockSpacing=1;whiteSpace=wrap;fontSize=16.7;align=center;spacing=3.8;strokeColor=#d79b00;strokeOpacity=100;rounded=1;absoluteArcSize=1;arcSize=9;strokeWidth=2.3;fillColor=#ffe6cc;" parent="1" vertex="1">
            <mxGeometry x="-352.5" y="730" width="225" height="98" as="geometry" />
          </mxCell>
        </UserObject>
        <mxCell id="6ZZ4I7emw9X15yYqETEI-9" value="" style="group;dropTarget=0;pointerEvents=0;" parent="1" vertex="1">
          <mxGeometry x="-322.5" y="867" width="165" height="98" as="geometry" />
        </mxCell>
        <UserObject label="" lucidchartObjectId="zQAeZ2QjWURC" id="6ZZ4I7emw9X15yYqETEI-10">
          <mxCell style="html=1;overflow=block;blockSpacing=1;whiteSpace=wrap;shape=hexagon;perimeter=hexagonPerimeter2;fontSize=13;align=center;spacing=3.8;strokeColor=#5e5e5e;strokeOpacity=100;rounded=1;absoluteArcSize=1;arcSize=9;strokeWidth=2.3;" parent="6ZZ4I7emw9X15yYqETEI-9" vertex="1">
            <mxGeometry x="11" y="11" width="154" height="87" as="geometry" />
          </mxCell>
        </UserObject>
        <UserObject label="Individual (P31)&#xa;Standard (P32)" lucidchartObjectId="LQAeZBsc9rgK" id="6ZZ4I7emw9X15yYqETEI-11">
          <mxCell style="html=1;overflow=block;blockSpacing=1;whiteSpace=wrap;fontSize=16.7;fontColor=#333333;align=center;spacing=3.8;strokeColor=#5e5e5e;strokeOpacity=100;rounded=1;absoluteArcSize=1;arcSize=9;strokeWidth=2.3;" parent="6ZZ4I7emw9X15yYqETEI-9" vertex="1">
            <mxGeometry width="143" height="78" as="geometry" />
          </mxCell>
        </UserObject>
        <mxCell id="6ZZ4I7emw9X15yYqETEI-18" value="&lt;br&gt;&lt;span data-lucid-content=&quot;{&amp;quot;t&amp;quot;:&amp;quot;Fall im KOS eingetragen, Prozess beendet.&amp;quot;,&amp;quot;m&amp;quot;:[{&amp;quot;s&amp;quot;:0,&amp;quot;n&amp;quot;:&amp;quot;a&amp;quot;,&amp;quot;v&amp;quot;:&amp;quot;center&amp;quot;},{&amp;quot;s&amp;quot;:0,&amp;quot;n&amp;quot;:&amp;quot;s&amp;quot;,&amp;quot;v&amp;quot;:22.22222222222222,&amp;quot;e&amp;quot;:41},{&amp;quot;s&amp;quot;:0,&amp;quot;n&amp;quot;:&amp;quot;c&amp;quot;,&amp;quot;v&amp;quot;:&amp;quot;333333ff&amp;quot;,&amp;quot;e&amp;quot;:41}]}&quot; data-lucid-type=&quot;application/vnd.lucid.text&quot;&gt;&lt;span style=&quot;color:#333333;font-size:16.666666666666664px;&quot;&gt;Fall im KOS eingetragen, Prozess beendet.&lt;/span&gt;&lt;/span&gt;" style="shape=hexagon;perimeter=hexagonPerimeter2;whiteSpace=wrap;html=1;fixedSize=1;strokeColor=#6c8ebf;strokeWidth=2.3;fillColor=#dae8fc;" parent="1" vertex="1">
          <mxGeometry x="-370" y="1020" width="260" height="140" as="geometry" />
        </mxCell>
        <mxCell id="6ZZ4I7emw9X15yYqETEI-19" style="edgeStyle=orthogonalEdgeStyle;rounded=0;orthogonalLoop=1;jettySize=auto;html=1;entryX=0.5;entryY=0;entryDx=0;entryDy=0;fontSize=18;exitX=0.5;exitY=1;exitDx=0;exitDy=0;" parent="1" source="6ZZ4I7emw9X15yYqETEI-9" target="6ZZ4I7emw9X15yYqETEI-18" edge="1">
          <mxGeometry relative="1" as="geometry">
            <mxPoint x="-240" y="990" as="sourcePoint" />
          </mxGeometry>
        </mxCell>
        <mxCell id="6ZZ4I7emw9X15yYqETEI-28" style="edgeStyle=orthogonalEdgeStyle;rounded=0;orthogonalLoop=1;jettySize=auto;html=1;entryX=0.463;entryY=-0.029;entryDx=0;entryDy=0;entryPerimeter=0;fontSize=18;" parent="1" source="6ZZ4I7emw9X15yYqETEI-20" target="6ZZ4I7emw9X15yYqETEI-21" edge="1">
          <mxGeometry relative="1" as="geometry" />
        </mxCell>
        <mxCell id="6ZZ4I7emw9X15yYqETEI-20" value="&lt;span data-lucid-content=&quot;{&amp;quot;t&amp;quot;:&amp;quot;Das Anliegen ist ein Incident/Fehler.&amp;quot;,&amp;quot;m&amp;quot;:[{&amp;quot;s&amp;quot;:0,&amp;quot;n&amp;quot;:&amp;quot;a&amp;quot;,&amp;quot;v&amp;quot;:&amp;quot;center&amp;quot;},{&amp;quot;s&amp;quot;:0,&amp;quot;n&amp;quot;:&amp;quot;s&amp;quot;,&amp;quot;v&amp;quot;:22.22222222222222,&amp;quot;e&amp;quot;:37},{&amp;quot;s&amp;quot;:0,&amp;quot;n&amp;quot;:&amp;quot;c&amp;quot;,&amp;quot;v&amp;quot;:&amp;quot;333333ff&amp;quot;,&amp;quot;e&amp;quot;:37}]}&quot; data-lucid-type=&quot;application/vnd.lucid.text&quot;&gt;&lt;span style=&quot;color:#333333;font-size:16.666666666666664px;&quot;&gt;Das Anliegen ist ein Incident/Fehler.&lt;/span&gt;&lt;/span&gt;" style="shape=hexagon;perimeter=hexagonPerimeter2;whiteSpace=wrap;html=1;fixedSize=1;strokeWidth=2.3;fillColor=#dae8fc;strokeColor=#6c8ebf;" parent="1" vertex="1">
          <mxGeometry x="182" y="540" width="204" height="140" as="geometry" />
        </mxCell>
        <mxCell id="6ZZ4I7emw9X15yYqETEI-29" style="edgeStyle=orthogonalEdgeStyle;rounded=0;orthogonalLoop=1;jettySize=auto;html=1;fontSize=18;" parent="1" source="6ZZ4I7emw9X15yYqETEI-21" target="6ZZ4I7emw9X15yYqETEI-22" edge="1">
          <mxGeometry relative="1" as="geometry" />
        </mxCell>
        <UserObject label="Der Support MA schaut, ob er den Incident/Fehler selbst lÃ¶sen kann." lucidchartObjectId="PXAeyJf.aFtb" id="6ZZ4I7emw9X15yYqETEI-21">
          <mxCell style="html=1;overflow=block;blockSpacing=1;whiteSpace=wrap;fontSize=16.7;align=center;spacing=3.8;strokeColor=#d79b00;strokeOpacity=100;rounded=1;absoluteArcSize=1;arcSize=9;strokeWidth=2.3;fillColor=#ffe6cc;" parent="1" vertex="1">
            <mxGeometry x="180" y="740" width="225" height="90" as="geometry" />
          </mxCell>
        </UserObject>
        <mxCell id="6ZZ4I7emw9X15yYqETEI-30" style="edgeStyle=orthogonalEdgeStyle;rounded=0;orthogonalLoop=1;jettySize=auto;html=1;entryX=0.438;entryY=0.023;entryDx=0;entryDy=0;entryPerimeter=0;fontSize=18;" parent="1" source="6ZZ4I7emw9X15yYqETEI-22" target="6ZZ4I7emw9X15yYqETEI-23" edge="1">
          <mxGeometry relative="1" as="geometry" />
        </mxCell>
        <mxCell id="6ZZ4I7emw9X15yYqETEI-38" style="edgeStyle=orthogonalEdgeStyle;rounded=0;orthogonalLoop=1;jettySize=auto;html=1;entryX=0.625;entryY=0;entryDx=0;entryDy=0;" parent="1" source="6ZZ4I7emw9X15yYqETEI-22" target="6ZZ4I7emw9X15yYqETEI-36" edge="1">
          <mxGeometry relative="1" as="geometry" />
        </mxCell>
        <UserObject label="XOR" lucidchartObjectId="uYAeOySeNECC" id="6ZZ4I7emw9X15yYqETEI-22">
          <mxCell style="html=1;overflow=block;blockSpacing=1;whiteSpace=wrap;ellipse;fontSize=16.7;fontColor=#333333;align=center;spacing=3.8;strokeColor=#000000;strokeOpacity=100;rounded=1;absoluteArcSize=1;arcSize=9;strokeWidth=2.3;" parent="1" vertex="1">
            <mxGeometry x="255" y="900" width="75" height="75" as="geometry" />
          </mxCell>
        </UserObject>
        <mxCell id="6ZZ4I7emw9X15yYqETEI-32" style="edgeStyle=orthogonalEdgeStyle;rounded=0;orthogonalLoop=1;jettySize=auto;html=1;entryX=0.535;entryY=-0.014;entryDx=0;entryDy=0;entryPerimeter=0;fontSize=18;" parent="1" source="6ZZ4I7emw9X15yYqETEI-23" target="6ZZ4I7emw9X15yYqETEI-24" edge="1">
          <mxGeometry relative="1" as="geometry" />
        </mxCell>
        <mxCell id="6ZZ4I7emw9X15yYqETEI-23" value="&lt;br&gt;&lt;span data-lucid-content=&quot;{&amp;quot;t&amp;quot;:&amp;quot;Fall im KOS eingetragen, Prozess beendet.&amp;quot;,&amp;quot;m&amp;quot;:[{&amp;quot;s&amp;quot;:0,&amp;quot;n&amp;quot;:&amp;quot;a&amp;quot;,&amp;quot;v&amp;quot;:&amp;quot;center&amp;quot;},{&amp;quot;s&amp;quot;:0,&amp;quot;n&amp;quot;:&amp;quot;s&amp;quot;,&amp;quot;v&amp;quot;:22.22222222222222,&amp;quot;e&amp;quot;:41},{&amp;quot;s&amp;quot;:0,&amp;quot;n&amp;quot;:&amp;quot;c&amp;quot;,&amp;quot;v&amp;quot;:&amp;quot;333333ff&amp;quot;,&amp;quot;e&amp;quot;:41}]}&quot; data-lucid-type=&quot;application/vnd.lucid.text&quot;&gt;&lt;span style=&quot;color:#333333;font-size:16.666666666666664px;&quot;&gt;Fall im KOS eingetragen, Prozess beendet.&lt;/span&gt;&lt;/span&gt;" style="shape=hexagon;perimeter=hexagonPerimeter2;whiteSpace=wrap;html=1;fixedSize=1;strokeWidth=2.3;fillColor=#dae8fc;strokeColor=#6c8ebf;" parent="1" vertex="1">
          <mxGeometry x="-40" y="1020" width="260" height="140" as="geometry" />
        </mxCell>
        <mxCell id="6ZZ4I7emw9X15yYqETEI-33" style="edgeStyle=orthogonalEdgeStyle;rounded=0;orthogonalLoop=1;jettySize=auto;html=1;fontSize=18;exitX=0.518;exitY=1.004;exitDx=0;exitDy=0;exitPerimeter=0;" parent="1" source="6ZZ4I7emw9X15yYqETEI-24" edge="1">
          <mxGeometry relative="1" as="geometry">
            <mxPoint x="79.47826086956547" y="1310" as="sourcePoint" />
            <mxPoint x="88" y="1340" as="targetPoint" />
          </mxGeometry>
        </mxCell>
        <UserObject label="Der Support MA hÃ¤lt die Informationen in einem KOS fest." lucidchartObjectId="hZAeEaQijx2j" id="6ZZ4I7emw9X15yYqETEI-24">
          <mxCell style="html=1;overflow=block;blockSpacing=1;whiteSpace=wrap;fontSize=16.7;align=center;spacing=3.8;strokeColor=#d79b00;strokeOpacity=100;rounded=1;absoluteArcSize=1;arcSize=9;strokeWidth=2.3;fillColor=#ffe6cc;" parent="1" vertex="1">
            <mxGeometry x="-31" y="1210" width="225" height="90" as="geometry" />
          </mxCell>
        </UserObject>
        <mxCell id="6ZZ4I7emw9X15yYqETEI-26" value="&lt;br&gt;&lt;span data-lucid-content=&quot;{&amp;quot;t&amp;quot;:&amp;quot;Fall im KOS eingetragen, Prozess beendet.&amp;quot;,&amp;quot;m&amp;quot;:[{&amp;quot;s&amp;quot;:0,&amp;quot;n&amp;quot;:&amp;quot;a&amp;quot;,&amp;quot;v&amp;quot;:&amp;quot;center&amp;quot;},{&amp;quot;s&amp;quot;:0,&amp;quot;n&amp;quot;:&amp;quot;s&amp;quot;,&amp;quot;v&amp;quot;:22.22222222222222,&amp;quot;e&amp;quot;:41},{&amp;quot;s&amp;quot;:0,&amp;quot;n&amp;quot;:&amp;quot;c&amp;quot;,&amp;quot;v&amp;quot;:&amp;quot;333333ff&amp;quot;,&amp;quot;e&amp;quot;:41}]}&quot; data-lucid-type=&quot;application/vnd.lucid.text&quot;&gt;&lt;span style=&quot;color:#333333;font-size:16.666666666666664px;&quot;&gt;Fall im KOS eingetragen, Prozess beendet.&lt;/span&gt;&lt;/span&gt;" style="shape=hexagon;perimeter=hexagonPerimeter2;whiteSpace=wrap;html=1;fixedSize=1;strokeWidth=2.3;fillColor=#dae8fc;strokeColor=#6c8ebf;" parent="1" vertex="1">
          <mxGeometry x="-48.5" y="1360" width="260" height="140" as="geometry" />
        </mxCell>
        <mxCell id="6ZZ4I7emw9X15yYqETEI-40" style="edgeStyle=orthogonalEdgeStyle;rounded=0;orthogonalLoop=1;jettySize=auto;html=1;entryX=0.5;entryY=0;entryDx=0;entryDy=0;" parent="1" source="6ZZ4I7emw9X15yYqETEI-36" target="6ZZ4I7emw9X15yYqETEI-39" edge="1">
          <mxGeometry relative="1" as="geometry" />
        </mxCell>
        <mxCell id="6ZZ4I7emw9X15yYqETEI-36" value="&lt;span data-lucid-content=&quot;{&amp;quot;t&amp;quot;:&amp;quot;Der Support MA ist nicht in der Lage, den Incident/Fehler zu lÃ¶sen.&amp;quot;,&amp;quot;m&amp;quot;:[{&amp;quot;s&amp;quot;:0,&amp;quot;n&amp;quot;:&amp;quot;a&amp;quot;,&amp;quot;v&amp;quot;:&amp;quot;center&amp;quot;},{&amp;quot;s&amp;quot;:0,&amp;quot;n&amp;quot;:&amp;quot;s&amp;quot;,&amp;quot;v&amp;quot;:22.22222222222222,&amp;quot;e&amp;quot;:67},{&amp;quot;s&amp;quot;:0,&amp;quot;n&amp;quot;:&amp;quot;c&amp;quot;,&amp;quot;v&amp;quot;:&amp;quot;333333ff&amp;quot;,&amp;quot;e&amp;quot;:67}]}&quot; data-lucid-type=&quot;application/vnd.lucid.text&quot;&gt;&lt;span style=&quot;color:#333333;font-size:16.666666666666664px;&quot;&gt;Der Support MA ist nicht in der Lage, den Incident/Fehler zu lÃ¶sen.&lt;/span&gt;&lt;/span&gt;" style="shape=hexagon;perimeter=hexagonPerimeter2;whiteSpace=wrap;html=1;fixedSize=1;strokeWidth=2.3;fillColor=#dae8fc;strokeColor=#6c8ebf;" parent="1" vertex="1">
          <mxGeometry x="370" y="1029" width="260" height="140" as="geometry" />
        </mxCell>
        <mxCell id="6ZZ4I7emw9X15yYqETEI-42" style="edgeStyle=orthogonalEdgeStyle;rounded=0;orthogonalLoop=1;jettySize=auto;html=1;entryX=0.5;entryY=0;entryDx=0;entryDy=0;" parent="1" source="6ZZ4I7emw9X15yYqETEI-39" target="6ZZ4I7emw9X15yYqETEI-41" edge="1">
          <mxGeometry relative="1" as="geometry" />
        </mxCell>
        <UserObject label="&lt;span data-lucid-content=&quot;{&amp;quot;t&amp;quot;:&amp;quot;Der Support MA hÃ¤lt die Informationen in einem KOS fest.&amp;quot;,&amp;quot;m&amp;quot;:[{&amp;quot;s&amp;quot;:0,&amp;quot;n&amp;quot;:&amp;quot;a&amp;quot;,&amp;quot;v&amp;quot;:&amp;quot;center&amp;quot;},{&amp;quot;s&amp;quot;:0,&amp;quot;n&amp;quot;:&amp;quot;s&amp;quot;,&amp;quot;v&amp;quot;:22.22222222222222,&amp;quot;e&amp;quot;:56},{&amp;quot;s&amp;quot;:0,&amp;quot;n&amp;quot;:&amp;quot;c&amp;quot;,&amp;quot;v&amp;quot;:&amp;quot;333333ff&amp;quot;,&amp;quot;e&amp;quot;:56}]}&quot; data-lucid-type=&quot;application/vnd.lucid.text&quot;&gt;&lt;span style=&quot;font-size: 16.6667px;&quot;&gt;Der Support MA hÃ¤lt die Informationen in einem KOS fest.&lt;/span&gt;&lt;/span&gt;" lucidchartObjectId="hZAeEaQijx2j" id="6ZZ4I7emw9X15yYqETEI-39">
          <mxCell style="html=1;overflow=block;blockSpacing=1;whiteSpace=wrap;fontSize=16.7;align=center;spacing=3.8;strokeColor=#d79b00;strokeOpacity=100;rounded=1;absoluteArcSize=1;arcSize=9;strokeWidth=2.3;fillColor=#ffe6cc;" parent="1" vertex="1">
            <mxGeometry x="387.5" y="1210" width="225" height="90" as="geometry" />
          </mxCell>
        </UserObject>
        <mxCell id="6ZZ4I7emw9X15yYqETEI-60" style="edgeStyle=orthogonalEdgeStyle;rounded=0;orthogonalLoop=1;jettySize=auto;html=1;entryX=0.5;entryY=0;entryDx=0;entryDy=0;" parent="1" source="6ZZ4I7emw9X15yYqETEI-41" target="6ZZ4I7emw9X15yYqETEI-59" edge="1">
          <mxGeometry relative="1" as="geometry" />
        </mxCell>
        <mxCell id="6ZZ4I7emw9X15yYqETEI-41" value="&lt;span data-lucid-content=&quot;{&amp;quot;t&amp;quot;:&amp;quot;Der Support MA ist nicht in der Lage, den Incident/Fehler zu lÃ¶sen.&amp;quot;,&amp;quot;m&amp;quot;:[{&amp;quot;s&amp;quot;:0,&amp;quot;n&amp;quot;:&amp;quot;a&amp;quot;,&amp;quot;v&amp;quot;:&amp;quot;center&amp;quot;},{&amp;quot;s&amp;quot;:0,&amp;quot;n&amp;quot;:&amp;quot;s&amp;quot;,&amp;quot;v&amp;quot;:22.22222222222222,&amp;quot;e&amp;quot;:67},{&amp;quot;s&amp;quot;:0,&amp;quot;n&amp;quot;:&amp;quot;c&amp;quot;,&amp;quot;v&amp;quot;:&amp;quot;333333ff&amp;quot;,&amp;quot;e&amp;quot;:67}]}&quot; data-lucid-type=&quot;application/vnd.lucid.text&quot;&gt;&lt;span style=&quot;color:#333333;font-size:16.666666666666664px;&quot;&gt;Fall im KOS eingetragen&lt;/span&gt;&lt;/span&gt;" style="shape=hexagon;perimeter=hexagonPerimeter2;whiteSpace=wrap;html=1;fixedSize=1;strokeWidth=2.3;fillColor=#dae8fc;strokeColor=#6c8ebf;" parent="1" vertex="1">
          <mxGeometry x="370" y="1360" width="260" height="140" as="geometry" />
        </mxCell>
        <mxCell id="6ZZ4I7emw9X15yYqETEI-46" style="edgeStyle=orthogonalEdgeStyle;rounded=0;orthogonalLoop=1;jettySize=auto;html=1;" parent="1" source="6ZZ4I7emw9X15yYqETEI-43" target="6ZZ4I7emw9X15yYqETEI-45" edge="1">
          <mxGeometry relative="1" as="geometry" />
        </mxCell>
        <mxCell id="6ZZ4I7emw9X15yYqETEI-43" value="&lt;span data-lucid-content=&quot;{&amp;quot;t&amp;quot;:&amp;quot;Das Anliegen ist eine Frage.&amp;quot;,&amp;quot;m&amp;quot;:[{&amp;quot;s&amp;quot;:0,&amp;quot;n&amp;quot;:&amp;quot;a&amp;quot;,&amp;quot;v&amp;quot;:&amp;quot;center&amp;quot;},{&amp;quot;s&amp;quot;:0,&amp;quot;n&amp;quot;:&amp;quot;s&amp;quot;,&amp;quot;v&amp;quot;:22.22222222222222,&amp;quot;e&amp;quot;:28},{&amp;quot;s&amp;quot;:0,&amp;quot;n&amp;quot;:&amp;quot;c&amp;quot;,&amp;quot;v&amp;quot;:&amp;quot;333333ff&amp;quot;,&amp;quot;e&amp;quot;:28}]}&quot; data-lucid-type=&quot;application/vnd.lucid.text&quot;&gt;&lt;span style=&quot;color:#333333;font-size:16.666666666666664px;&quot;&gt;Das Anliegen ist eine Frage.&lt;/span&gt;&lt;/span&gt;" style="shape=hexagon;perimeter=hexagonPerimeter2;whiteSpace=wrap;html=1;fixedSize=1;strokeWidth=2.3;fillColor=#dae8fc;strokeColor=#6c8ebf;" parent="1" vertex="1">
          <mxGeometry x="500" y="540" width="204" height="140" as="geometry" />
        </mxCell>
        <mxCell id="6ZZ4I7emw9X15yYqETEI-49" style="edgeStyle=orthogonalEdgeStyle;rounded=0;orthogonalLoop=1;jettySize=auto;html=1;" parent="1" source="6ZZ4I7emw9X15yYqETEI-45" target="6ZZ4I7emw9X15yYqETEI-47" edge="1">
          <mxGeometry relative="1" as="geometry" />
        </mxCell>
        <UserObject label="Der Support MA schaut, ob er den Incident/Fehler selbst lÃ¶sen kann." lucidchartObjectId="PXAeyJf.aFtb" id="6ZZ4I7emw9X15yYqETEI-45">
          <mxCell style="html=1;overflow=block;blockSpacing=1;whiteSpace=wrap;fontSize=16.7;align=center;spacing=3.8;strokeColor=#d79b00;strokeOpacity=100;rounded=1;absoluteArcSize=1;arcSize=9;strokeWidth=2.3;fillColor=#ffe6cc;" parent="1" vertex="1">
            <mxGeometry x="662.5" y="740" width="225" height="90" as="geometry" />
          </mxCell>
        </UserObject>
        <mxCell id="6ZZ4I7emw9X15yYqETEI-51" style="edgeStyle=orthogonalEdgeStyle;rounded=0;orthogonalLoop=1;jettySize=auto;html=1;entryX=0.5;entryY=0;entryDx=0;entryDy=0;" parent="1" source="6ZZ4I7emw9X15yYqETEI-47" target="6ZZ4I7emw9X15yYqETEI-50" edge="1">
          <mxGeometry relative="1" as="geometry" />
        </mxCell>
        <mxCell id="6ZZ4I7emw9X15yYqETEI-54" style="edgeStyle=orthogonalEdgeStyle;rounded=0;orthogonalLoop=1;jettySize=auto;html=1;entryX=0.5;entryY=0;entryDx=0;entryDy=0;" parent="1" source="6ZZ4I7emw9X15yYqETEI-47" target="6ZZ4I7emw9X15yYqETEI-53" edge="1">
          <mxGeometry relative="1" as="geometry" />
        </mxCell>
        <UserObject label="XOR" lucidchartObjectId="uYAeOySeNECC" id="6ZZ4I7emw9X15yYqETEI-47">
          <mxCell style="html=1;overflow=block;blockSpacing=1;whiteSpace=wrap;ellipse;fontSize=16.7;fontColor=#333333;align=center;spacing=3.8;strokeColor=#000000;strokeOpacity=100;rounded=1;absoluteArcSize=1;arcSize=9;strokeWidth=2.3;" parent="1" vertex="1">
            <mxGeometry x="935" y="890" width="75" height="75" as="geometry" />
          </mxCell>
        </UserObject>
        <mxCell id="6ZZ4I7emw9X15yYqETEI-52" style="edgeStyle=orthogonalEdgeStyle;rounded=0;orthogonalLoop=1;jettySize=auto;html=1;entryX=1;entryY=0.5;entryDx=0;entryDy=0;exitX=0.5;exitY=1;exitDx=0;exitDy=0;" parent="1" source="6ZZ4I7emw9X15yYqETEI-50" target="6ZZ4I7emw9X15yYqETEI-39" edge="1">
          <mxGeometry relative="1" as="geometry" />
        </mxCell>
        <mxCell id="6ZZ4I7emw9X15yYqETEI-50" value="&lt;span data-lucid-content=&quot;{&amp;quot;t&amp;quot;:&amp;quot;Der Support MA kann die Frage nicht beantworten.&amp;quot;,&amp;quot;m&amp;quot;:[{&amp;quot;s&amp;quot;:0,&amp;quot;n&amp;quot;:&amp;quot;a&amp;quot;,&amp;quot;v&amp;quot;:&amp;quot;center&amp;quot;},{&amp;quot;s&amp;quot;:0,&amp;quot;n&amp;quot;:&amp;quot;s&amp;quot;,&amp;quot;v&amp;quot;:22.22222222222222,&amp;quot;e&amp;quot;:48},{&amp;quot;s&amp;quot;:0,&amp;quot;n&amp;quot;:&amp;quot;c&amp;quot;,&amp;quot;v&amp;quot;:&amp;quot;333333ff&amp;quot;,&amp;quot;e&amp;quot;:48}]}&quot; data-lucid-type=&quot;application/vnd.lucid.text&quot;&gt;&lt;span style=&quot;color:#333333;font-size:16.666666666666664px;&quot;&gt;Der Support MA kann die Frage nicht beantworten.&lt;/span&gt;&lt;/span&gt;" style="shape=hexagon;perimeter=hexagonPerimeter2;whiteSpace=wrap;html=1;fixedSize=1;strokeWidth=2.3;fillColor=#dae8fc;strokeColor=#6c8ebf;" parent="1" vertex="1">
          <mxGeometry x="670" y="1029" width="260" height="140" as="geometry" />
        </mxCell>
        <mxCell id="6ZZ4I7emw9X15yYqETEI-56" style="edgeStyle=orthogonalEdgeStyle;rounded=0;orthogonalLoop=1;jettySize=auto;html=1;" parent="1" source="6ZZ4I7emw9X15yYqETEI-53" target="6ZZ4I7emw9X15yYqETEI-55" edge="1">
          <mxGeometry relative="1" as="geometry" />
        </mxCell>
        <mxCell id="6ZZ4I7emw9X15yYqETEI-53" value="&lt;span data-lucid-content=&quot;{&amp;quot;t&amp;quot;:&amp;quot;Der Support MA ist in der Lage, die Frage zu beantworten.&amp;quot;,&amp;quot;m&amp;quot;:[{&amp;quot;s&amp;quot;:0,&amp;quot;n&amp;quot;:&amp;quot;a&amp;quot;,&amp;quot;v&amp;quot;:&amp;quot;center&amp;quot;},{&amp;quot;s&amp;quot;:0,&amp;quot;n&amp;quot;:&amp;quot;s&amp;quot;,&amp;quot;v&amp;quot;:22.22222222222222,&amp;quot;e&amp;quot;:57},{&amp;quot;s&amp;quot;:0,&amp;quot;n&amp;quot;:&amp;quot;c&amp;quot;,&amp;quot;v&amp;quot;:&amp;quot;333333ff&amp;quot;,&amp;quot;e&amp;quot;:57}]}&quot; data-lucid-type=&quot;application/vnd.lucid.text&quot;&gt;&lt;span style=&quot;color:#333333;font-size:16.666666666666664px;&quot;&gt;Der Support MA ist in der Lage, die Frage zu beantworten.&lt;/span&gt;&lt;/span&gt;" style="shape=hexagon;perimeter=hexagonPerimeter2;whiteSpace=wrap;html=1;fixedSize=1;strokeWidth=2.3;fillColor=#dae8fc;strokeColor=#6c8ebf;" parent="1" vertex="1">
          <mxGeometry x="1020" y="1029" width="260" height="140" as="geometry" />
        </mxCell>
        <mxCell id="6ZZ4I7emw9X15yYqETEI-58" style="edgeStyle=orthogonalEdgeStyle;rounded=0;orthogonalLoop=1;jettySize=auto;html=1;entryX=0.5;entryY=0;entryDx=0;entryDy=0;" parent="1" source="6ZZ4I7emw9X15yYqETEI-55" target="6ZZ4I7emw9X15yYqETEI-57" edge="1">
          <mxGeometry relative="1" as="geometry" />
        </mxCell>
        <UserObject label="&lt;span data-lucid-content=&quot;{&amp;quot;t&amp;quot;:&amp;quot;Der Support MA hÃ¤lt die Informationen in einem KOS fest.&amp;quot;,&amp;quot;m&amp;quot;:[{&amp;quot;s&amp;quot;:0,&amp;quot;n&amp;quot;:&amp;quot;a&amp;quot;,&amp;quot;v&amp;quot;:&amp;quot;center&amp;quot;},{&amp;quot;s&amp;quot;:0,&amp;quot;n&amp;quot;:&amp;quot;s&amp;quot;,&amp;quot;v&amp;quot;:22.22222222222222,&amp;quot;e&amp;quot;:56},{&amp;quot;s&amp;quot;:0,&amp;quot;n&amp;quot;:&amp;quot;c&amp;quot;,&amp;quot;v&amp;quot;:&amp;quot;333333ff&amp;quot;,&amp;quot;e&amp;quot;:56}]}&quot; data-lucid-type=&quot;application/vnd.lucid.text&quot;&gt;&lt;span style=&quot;font-size: 16.6667px;&quot;&gt;Der Support MA hÃ¤lt die Informationen in einem KOS fest.&lt;/span&gt;&lt;/span&gt;" lucidchartObjectId="PXAeyJf.aFtb" id="6ZZ4I7emw9X15yYqETEI-55">
          <mxCell style="html=1;overflow=block;blockSpacing=1;whiteSpace=wrap;fontSize=16.7;align=center;spacing=3.8;strokeColor=#d79b00;strokeOpacity=100;rounded=1;absoluteArcSize=1;arcSize=9;strokeWidth=2.3;fillColor=#ffe6cc;" parent="1" vertex="1">
            <mxGeometry x="1037.5" y="1220" width="225" height="90" as="geometry" />
          </mxCell>
        </UserObject>
        <mxCell id="6ZZ4I7emw9X15yYqETEI-57" value="&lt;br&gt;&lt;span data-lucid-content=&quot;{&amp;quot;t&amp;quot;:&amp;quot;Fall im KOS eingetragen, Prozess beendet.&amp;quot;,&amp;quot;m&amp;quot;:[{&amp;quot;s&amp;quot;:0,&amp;quot;n&amp;quot;:&amp;quot;a&amp;quot;,&amp;quot;v&amp;quot;:&amp;quot;center&amp;quot;},{&amp;quot;s&amp;quot;:0,&amp;quot;n&amp;quot;:&amp;quot;s&amp;quot;,&amp;quot;v&amp;quot;:22.22222222222222,&amp;quot;e&amp;quot;:41},{&amp;quot;s&amp;quot;:0,&amp;quot;n&amp;quot;:&amp;quot;c&amp;quot;,&amp;quot;v&amp;quot;:&amp;quot;333333ff&amp;quot;,&amp;quot;e&amp;quot;:41}]}&quot; data-lucid-type=&quot;application/vnd.lucid.text&quot;&gt;&lt;span style=&quot;color:#333333;font-size:16.666666666666664px;&quot;&gt;Fall im KOS eingetragen, Prozess beendet.&lt;/span&gt;&lt;/span&gt;" style="shape=hexagon;perimeter=hexagonPerimeter2;whiteSpace=wrap;html=1;fixedSize=1;strokeWidth=2.3;fillColor=#dae8fc;strokeColor=#6c8ebf;" parent="1" vertex="1">
          <mxGeometry x="1020" y="1360" width="260" height="140" as="geometry" />
        </mxCell>
        <mxCell id="6ZZ4I7emw9X15yYqETEI-62" style="edgeStyle=orthogonalEdgeStyle;rounded=0;orthogonalLoop=1;jettySize=auto;html=1;" parent="1" source="6ZZ4I7emw9X15yYqETEI-59" target="6ZZ4I7emw9X15yYqETEI-61" edge="1">
          <mxGeometry relative="1" as="geometry" />
        </mxCell>
        <UserObject label="&lt;span data-lucid-content=&quot;{&amp;quot;t&amp;quot;:&amp;quot;Der Fall wird in Support Teambesprechung analysiert&amp;quot;,&amp;quot;m&amp;quot;:[{&amp;quot;s&amp;quot;:0,&amp;quot;n&amp;quot;:&amp;quot;a&amp;quot;,&amp;quot;v&amp;quot;:&amp;quot;center&amp;quot;},{&amp;quot;s&amp;quot;:0,&amp;quot;n&amp;quot;:&amp;quot;s&amp;quot;,&amp;quot;v&amp;quot;:22.22222222222222,&amp;quot;e&amp;quot;:51},{&amp;quot;s&amp;quot;:0,&amp;quot;n&amp;quot;:&amp;quot;c&amp;quot;,&amp;quot;v&amp;quot;:&amp;quot;333333ff&amp;quot;,&amp;quot;e&amp;quot;:51}]}&quot; data-lucid-type=&quot;application/vnd.lucid.text&quot;&gt;&lt;span style=&quot;font-size: 16.6667px;&quot;&gt;Der Fall wird in Support Teambesprechung analysiert&lt;/span&gt;&lt;/span&gt;" lucidchartObjectId="hZAeEaQijx2j" id="6ZZ4I7emw9X15yYqETEI-59">
          <mxCell style="html=1;overflow=block;blockSpacing=1;whiteSpace=wrap;fontSize=16.7;align=center;spacing=3.8;strokeColor=#d79b00;strokeOpacity=100;rounded=1;absoluteArcSize=1;arcSize=9;strokeWidth=2.3;fillColor=#ffe6cc;" parent="1" vertex="1">
            <mxGeometry x="387.5" y="1540" width="225" height="90" as="geometry" />
          </mxCell>
        </UserObject>
        <mxCell id="6ZZ4I7emw9X15yYqETEI-64" style="edgeStyle=orthogonalEdgeStyle;rounded=0;orthogonalLoop=1;jettySize=auto;html=1;entryX=0.5;entryY=0;entryDx=0;entryDy=0;" parent="1" source="6ZZ4I7emw9X15yYqETEI-61" target="6ZZ4I7emw9X15yYqETEI-63" edge="1">
          <mxGeometry relative="1" as="geometry" />
        </mxCell>
        <mxCell id="6ZZ4I7emw9X15yYqETEI-61" value="&lt;span data-lucid-content=&quot;{&amp;quot;t&amp;quot;:&amp;quot;Support Teambesprechung fertig.&amp;quot;,&amp;quot;m&amp;quot;:[{&amp;quot;s&amp;quot;:0,&amp;quot;n&amp;quot;:&amp;quot;a&amp;quot;,&amp;quot;v&amp;quot;:&amp;quot;center&amp;quot;},{&amp;quot;s&amp;quot;:0,&amp;quot;n&amp;quot;:&amp;quot;s&amp;quot;,&amp;quot;v&amp;quot;:22.22222222222222,&amp;quot;e&amp;quot;:31},{&amp;quot;s&amp;quot;:0,&amp;quot;n&amp;quot;:&amp;quot;c&amp;quot;,&amp;quot;v&amp;quot;:&amp;quot;333333ff&amp;quot;,&amp;quot;e&amp;quot;:31}]}&quot; data-lucid-type=&quot;application/vnd.lucid.text&quot;&gt;&lt;span style=&quot;color:#333333;font-size:16.666666666666664px;&quot;&gt;Support Teambesprechung fertig.&lt;br&gt;Analyse abgeschlossen.&lt;br&gt;&lt;/span&gt;&lt;/span&gt;" style="shape=hexagon;perimeter=hexagonPerimeter2;whiteSpace=wrap;html=1;fixedSize=1;strokeWidth=2.3;fillColor=#dae8fc;strokeColor=#6c8ebf;" parent="1" vertex="1">
          <mxGeometry x="370" y="1670" width="260" height="140" as="geometry" />
        </mxCell>
        <mxCell id="6ZZ4I7emw9X15yYqETEI-66" style="edgeStyle=orthogonalEdgeStyle;rounded=0;orthogonalLoop=1;jettySize=auto;html=1;entryX=0.5;entryY=0;entryDx=0;entryDy=0;strokeWidth=1;" parent="1" source="6ZZ4I7emw9X15yYqETEI-63" target="6ZZ4I7emw9X15yYqETEI-140" edge="1">
          <mxGeometry relative="1" as="geometry">
            <mxPoint x="499.75" y="2020" as="targetPoint" />
            <Array as="points">
              <mxPoint x="1320" y="1915" />
              <mxPoint x="1320" y="34" />
              <mxPoint x="1698" y="34" />
            </Array>
          </mxGeometry>
        </mxCell>
        <UserObject label="&lt;span data-lucid-content=&quot;{&amp;quot;t&amp;quot;:&amp;quot;Konnte der Incident/Fehler/Frage durch die Support Teambesprechung gelÃ¶st werden?&amp;quot;,&amp;quot;m&amp;quot;:[{&amp;quot;s&amp;quot;:0,&amp;quot;n&amp;quot;:&amp;quot;a&amp;quot;,&amp;quot;v&amp;quot;:&amp;quot;center&amp;quot;},{&amp;quot;s&amp;quot;:0,&amp;quot;n&amp;quot;:&amp;quot;s&amp;quot;,&amp;quot;v&amp;quot;:22.22222222222222,&amp;quot;e&amp;quot;:81},{&amp;quot;s&amp;quot;:0,&amp;quot;n&amp;quot;:&amp;quot;c&amp;quot;,&amp;quot;v&amp;quot;:&amp;quot;333333ff&amp;quot;,&amp;quot;e&amp;quot;:81}]}&quot; data-lucid-type=&quot;application/vnd.lucid.text&quot;&gt;&lt;span style=&quot;font-size: 16.6667px;&quot;&gt;Konnte der Incident/Fehler/Frage durch die Support Teambesprechung gelÃ¶st werden?&lt;/span&gt;&lt;/span&gt;" lucidchartObjectId="hZAeEaQijx2j" id="6ZZ4I7emw9X15yYqETEI-63">
          <mxCell style="html=1;overflow=block;blockSpacing=1;whiteSpace=wrap;fontSize=16.7;align=center;spacing=3.8;strokeColor=#d79b00;strokeOpacity=100;rounded=1;absoluteArcSize=1;arcSize=9;strokeWidth=2.3;fillColor=#ffe6cc;" parent="1" vertex="1">
            <mxGeometry x="388.5" y="1850" width="222.5" height="130" as="geometry" />
          </mxCell>
        </UserObject>
        <mxCell id="6ZZ4I7emw9X15yYqETEI-138" style="edgeStyle=orthogonalEdgeStyle;rounded=0;orthogonalLoop=1;jettySize=auto;html=1;entryX=0.5;entryY=0;entryDx=0;entryDy=0;" parent="1" source="6ZZ4I7emw9X15yYqETEI-140" target="6ZZ4I7emw9X15yYqETEI-175" edge="1">
          <mxGeometry relative="1" as="geometry" />
        </mxCell>
        <mxCell id="6ZZ4I7emw9X15yYqETEI-139" style="edgeStyle=orthogonalEdgeStyle;rounded=0;orthogonalLoop=1;jettySize=auto;html=1;entryX=0.5;entryY=0;entryDx=0;entryDy=0;" parent="1" source="6ZZ4I7emw9X15yYqETEI-140" target="6ZZ4I7emw9X15yYqETEI-142" edge="1">
          <mxGeometry relative="1" as="geometry" />
        </mxCell>
        <UserObject label="XOR" lucidchartObjectId="uYAeOySeNECC" id="6ZZ4I7emw9X15yYqETEI-140">
          <mxCell style="html=1;overflow=block;blockSpacing=1;whiteSpace=wrap;ellipse;fontSize=16.7;fontColor=#333333;align=center;spacing=3.8;strokeColor=#000000;strokeOpacity=100;rounded=1;absoluteArcSize=1;arcSize=9;strokeWidth=2.3;" parent="1" vertex="1">
            <mxGeometry x="1660" y="54.5" width="75" height="75" as="geometry" />
          </mxCell>
        </UserObject>
        <mxCell id="6ZZ4I7emw9X15yYqETEI-141" style="edgeStyle=orthogonalEdgeStyle;rounded=0;orthogonalLoop=1;jettySize=auto;html=1;" parent="1" source="6ZZ4I7emw9X15yYqETEI-142" target="6ZZ4I7emw9X15yYqETEI-144" edge="1">
          <mxGeometry relative="1" as="geometry" />
        </mxCell>
        <mxCell id="6ZZ4I7emw9X15yYqETEI-142" value="&lt;span style=&quot;color: rgb(51, 51, 51); font-size: 16.6667px;&quot;&gt;Der Incident/Fehler/Frage konnte nicht durch die Support Teambesprechung gelÃ¶st werden.&lt;/span&gt;" style="shape=hexagon;perimeter=hexagonPerimeter2;whiteSpace=wrap;html=1;fixedSize=1;strokeWidth=2.3;fillColor=#dae8fc;strokeColor=#6c8ebf;" parent="1" vertex="1">
          <mxGeometry x="1746.5" y="144.5" width="260" height="140" as="geometry" />
        </mxCell>
        <mxCell id="6ZZ4I7emw9X15yYqETEI-143" style="edgeStyle=orthogonalEdgeStyle;rounded=0;orthogonalLoop=1;jettySize=auto;html=1;entryX=0.5;entryY=0;entryDx=0;entryDy=0;" parent="1" source="6ZZ4I7emw9X15yYqETEI-144" target="6ZZ4I7emw9X15yYqETEI-146" edge="1">
          <mxGeometry relative="1" as="geometry" />
        </mxCell>
        <UserObject label="&lt;span data-lucid-content=&quot;{&amp;quot;t&amp;quot;:&amp;quot;Konnte der Incident/Fehler/Frage durch die Support Teambesprechung gelÃ¶st werden?&amp;quot;,&amp;quot;m&amp;quot;:[{&amp;quot;s&amp;quot;:0,&amp;quot;n&amp;quot;:&amp;quot;a&amp;quot;,&amp;quot;v&amp;quot;:&amp;quot;center&amp;quot;},{&amp;quot;s&amp;quot;:0,&amp;quot;n&amp;quot;:&amp;quot;s&amp;quot;,&amp;quot;v&amp;quot;:22.22222222222222,&amp;quot;e&amp;quot;:81},{&amp;quot;s&amp;quot;:0,&amp;quot;n&amp;quot;:&amp;quot;c&amp;quot;,&amp;quot;v&amp;quot;:&amp;quot;333333ff&amp;quot;,&amp;quot;e&amp;quot;:81}]}&quot; data-lucid-type=&quot;application/vnd.lucid.text&quot;&gt;&lt;span style=&quot;font-size: 16.6667px;&quot;&gt;Der Fall wird mit dem ursprÃ¼nglichen PL besprochen bzw. an ihn weitergeleitet.&lt;/span&gt;&lt;/span&gt;" lucidchartObjectId="hZAeEaQijx2j" id="6ZZ4I7emw9X15yYqETEI-144">
          <mxCell style="html=1;overflow=block;blockSpacing=1;whiteSpace=wrap;fontSize=16.7;align=center;spacing=3.8;strokeColor=#d79b00;strokeOpacity=100;rounded=1;absoluteArcSize=1;arcSize=9;strokeWidth=2.3;fillColor=#ffe6cc;" parent="1" vertex="1">
            <mxGeometry x="1765.25" y="314.5" width="222.5" height="130" as="geometry" />
          </mxCell>
        </UserObject>
        <mxCell id="6ZZ4I7emw9X15yYqETEI-145" style="edgeStyle=orthogonalEdgeStyle;rounded=0;orthogonalLoop=1;jettySize=auto;html=1;" parent="1" source="6ZZ4I7emw9X15yYqETEI-146" target="6ZZ4I7emw9X15yYqETEI-148" edge="1">
          <mxGeometry relative="1" as="geometry" />
        </mxCell>
        <mxCell id="6ZZ4I7emw9X15yYqETEI-146" value="&lt;font color=&quot;#333333&quot;&gt;&lt;span style=&quot;font-size: 16.6667px;&quot;&gt;Der ursprÃ¼ngliche PL wurde eingeschalten.&lt;/span&gt;&lt;/font&gt;" style="shape=hexagon;perimeter=hexagonPerimeter2;whiteSpace=wrap;html=1;fixedSize=1;strokeWidth=2.3;fillColor=#dae8fc;strokeColor=#6c8ebf;" parent="1" vertex="1">
          <mxGeometry x="1746.5" y="484.5" width="260" height="140" as="geometry" />
        </mxCell>
        <mxCell id="6ZZ4I7emw9X15yYqETEI-147" style="edgeStyle=orthogonalEdgeStyle;rounded=0;orthogonalLoop=1;jettySize=auto;html=1;" parent="1" source="6ZZ4I7emw9X15yYqETEI-148" target="6ZZ4I7emw9X15yYqETEI-151" edge="1">
          <mxGeometry relative="1" as="geometry" />
        </mxCell>
        <UserObject label="&lt;span data-lucid-content=&quot;{&amp;quot;t&amp;quot;:&amp;quot;Konnte der Incident/Fehler/Frage durch die Support Teambesprechung gelÃ¶st werden?&amp;quot;,&amp;quot;m&amp;quot;:[{&amp;quot;s&amp;quot;:0,&amp;quot;n&amp;quot;:&amp;quot;a&amp;quot;,&amp;quot;v&amp;quot;:&amp;quot;center&amp;quot;},{&amp;quot;s&amp;quot;:0,&amp;quot;n&amp;quot;:&amp;quot;s&amp;quot;,&amp;quot;v&amp;quot;:22.22222222222222,&amp;quot;e&amp;quot;:81},{&amp;quot;s&amp;quot;:0,&amp;quot;n&amp;quot;:&amp;quot;c&amp;quot;,&amp;quot;v&amp;quot;:&amp;quot;333333ff&amp;quot;,&amp;quot;e&amp;quot;:81}]}&quot; data-lucid-type=&quot;application/vnd.lucid.text&quot;&gt;&lt;span style=&quot;font-size: 16.6667px;&quot;&gt;Konnte der Incident/Fehler/Frage durch den PL gelÃ¶st werden?&lt;/span&gt;&lt;/span&gt;" lucidchartObjectId="hZAeEaQijx2j" id="6ZZ4I7emw9X15yYqETEI-148">
          <mxCell style="html=1;overflow=block;blockSpacing=1;whiteSpace=wrap;fontSize=16.7;align=center;spacing=3.8;strokeColor=#d79b00;strokeOpacity=100;rounded=1;absoluteArcSize=1;arcSize=9;strokeWidth=2.3;fillColor=#ffe6cc;" parent="1" vertex="1">
            <mxGeometry x="1765.25" y="654.5" width="222.5" height="130" as="geometry" />
          </mxCell>
        </UserObject>
        <mxCell id="6ZZ4I7emw9X15yYqETEI-149" style="edgeStyle=orthogonalEdgeStyle;rounded=0;orthogonalLoop=1;jettySize=auto;html=1;entryX=0.5;entryY=0;entryDx=0;entryDy=0;" parent="1" source="6ZZ4I7emw9X15yYqETEI-151" target="6ZZ4I7emw9X15yYqETEI-152" edge="1">
          <mxGeometry relative="1" as="geometry">
            <mxPoint x="1667.833333333333" y="1077.5" as="targetPoint" />
          </mxGeometry>
        </mxCell>
        <mxCell id="6ZZ4I7emw9X15yYqETEI-150" style="edgeStyle=orthogonalEdgeStyle;rounded=0;orthogonalLoop=1;jettySize=auto;html=1;" parent="1" source="6ZZ4I7emw9X15yYqETEI-151" target="6ZZ4I7emw9X15yYqETEI-154" edge="1">
          <mxGeometry relative="1" as="geometry" />
        </mxCell>
        <UserObject label="XOR" lucidchartObjectId="uYAeOySeNECC" id="6ZZ4I7emw9X15yYqETEI-151">
          <mxCell style="html=1;overflow=block;blockSpacing=1;whiteSpace=wrap;ellipse;fontSize=16.7;fontColor=#333333;align=center;spacing=3.8;strokeColor=#000000;strokeOpacity=100;rounded=1;absoluteArcSize=1;arcSize=9;strokeWidth=2.3;" parent="1" vertex="1">
            <mxGeometry x="1839" y="814.5" width="75" height="75" as="geometry" />
          </mxCell>
        </UserObject>
        <mxCell id="6ZZ4I7emw9X15yYqETEI-152" value="&lt;span style=&quot;color: rgb(51, 51, 51); font-size: 16.6667px;&quot;&gt;Der Incident/Fehler/Frage konnte gelÃ¶st werden. Der Prozess ist somit beendet.&lt;/span&gt;" style="shape=hexagon;perimeter=hexagonPerimeter2;whiteSpace=wrap;html=1;fixedSize=1;strokeWidth=2.3;fillColor=#dae8fc;strokeColor=#6c8ebf;" parent="1" vertex="1">
          <mxGeometry x="1537.75" y="889.5" width="260" height="140" as="geometry" />
        </mxCell>
        <mxCell id="6ZZ4I7emw9X15yYqETEI-153" style="edgeStyle=orthogonalEdgeStyle;rounded=0;orthogonalLoop=1;jettySize=auto;html=1;" parent="1" source="6ZZ4I7emw9X15yYqETEI-154" target="6ZZ4I7emw9X15yYqETEI-157" edge="1">
          <mxGeometry relative="1" as="geometry" />
        </mxCell>
        <mxCell id="6ZZ4I7emw9X15yYqETEI-154" value="&lt;span style=&quot;color: rgb(51, 51, 51); font-size: 16.6667px;&quot;&gt;Der Incident/Fehler/Frage konnte nicht durch den PL gelÃ¶st werden.&lt;/span&gt;" style="shape=hexagon;perimeter=hexagonPerimeter2;whiteSpace=wrap;html=1;fixedSize=1;strokeWidth=2.3;fillColor=#dae8fc;strokeColor=#6c8ebf;" parent="1" vertex="1">
          <mxGeometry x="1957.75" y="894.5" width="260" height="140" as="geometry" />
        </mxCell>
        <mxCell id="6ZZ4I7emw9X15yYqETEI-155" value="" style="group;dropTarget=0;pointerEvents=0;" parent="1" vertex="1">
          <mxGeometry x="2017.75" y="1074.5" width="165" height="98" as="geometry" />
        </mxCell>
        <UserObject label="" lucidchartObjectId="zQAeZ2QjWURC" id="6ZZ4I7emw9X15yYqETEI-156">
          <mxCell style="html=1;overflow=block;blockSpacing=1;whiteSpace=wrap;shape=hexagon;perimeter=hexagonPerimeter2;fontSize=13;align=center;spacing=3.8;strokeColor=#5e5e5e;strokeOpacity=100;rounded=1;absoluteArcSize=1;arcSize=9;strokeWidth=2.3;" parent="6ZZ4I7emw9X15yYqETEI-155" vertex="1">
            <mxGeometry x="11" y="11" width="154" height="87" as="geometry" />
          </mxCell>
        </UserObject>
        <UserObject label="Auftrag (P33)" lucidchartObjectId="LQAeZBsc9rgK" id="6ZZ4I7emw9X15yYqETEI-157">
          <mxCell style="html=1;overflow=block;blockSpacing=1;whiteSpace=wrap;fontSize=16.7;fontColor=#333333;align=center;spacing=3.8;strokeColor=#5e5e5e;strokeOpacity=100;rounded=1;absoluteArcSize=1;arcSize=9;strokeWidth=2.3;" parent="6ZZ4I7emw9X15yYqETEI-155" vertex="1">
            <mxGeometry x="-1" width="143" height="78" as="geometry" />
          </mxCell>
        </UserObject>
        <mxCell id="6ZZ4I7emw9X15yYqETEI-158" style="edgeStyle=orthogonalEdgeStyle;rounded=0;orthogonalLoop=1;jettySize=auto;html=1;entryX=0.5;entryY=0;entryDx=0;entryDy=0;" parent="1" source="6ZZ4I7emw9X15yYqETEI-159" target="6ZZ4I7emw9X15yYqETEI-163" edge="1">
          <mxGeometry relative="1" as="geometry" />
        </mxCell>
        <UserObject label="&lt;span data-lucid-content=&quot;{&amp;quot;t&amp;quot;:&amp;quot;Konnte der Incident/Fehler/Frage durch die Support Teambesprechung gelÃ¶st werden?&amp;quot;,&amp;quot;m&amp;quot;:[{&amp;quot;s&amp;quot;:0,&amp;quot;n&amp;quot;:&amp;quot;a&amp;quot;,&amp;quot;v&amp;quot;:&amp;quot;center&amp;quot;},{&amp;quot;s&amp;quot;:0,&amp;quot;n&amp;quot;:&amp;quot;s&amp;quot;,&amp;quot;v&amp;quot;:22.22222222222222,&amp;quot;e&amp;quot;:81},{&amp;quot;s&amp;quot;:0,&amp;quot;n&amp;quot;:&amp;quot;c&amp;quot;,&amp;quot;v&amp;quot;:&amp;quot;333333ff&amp;quot;,&amp;quot;e&amp;quot;:81}]}&quot; data-lucid-type=&quot;application/vnd.lucid.text&quot;&gt;&lt;span style=&quot;font-size: 16.6667px;&quot;&gt;Konnte der Incident/Fehler/Frage gelÃ¶st werden?&lt;/span&gt;&lt;/span&gt;" lucidchartObjectId="hZAeEaQijx2j" id="6ZZ4I7emw9X15yYqETEI-159">
          <mxCell style="html=1;overflow=block;blockSpacing=1;whiteSpace=wrap;fontSize=16.7;align=center;spacing=3.8;strokeColor=#d79b00;strokeOpacity=100;rounded=1;absoluteArcSize=1;arcSize=9;strokeWidth=2.3;fillColor=#ffe6cc;" parent="1" vertex="1">
            <mxGeometry x="1976.5" y="1214.5" width="222.5" height="130" as="geometry" />
          </mxCell>
        </UserObject>
        <mxCell id="6ZZ4I7emw9X15yYqETEI-160" style="edgeStyle=orthogonalEdgeStyle;rounded=0;orthogonalLoop=1;jettySize=auto;html=1;" parent="1" source="6ZZ4I7emw9X15yYqETEI-157" target="6ZZ4I7emw9X15yYqETEI-159" edge="1">
          <mxGeometry relative="1" as="geometry" />
        </mxCell>
        <mxCell id="6ZZ4I7emw9X15yYqETEI-161" style="edgeStyle=orthogonalEdgeStyle;rounded=0;orthogonalLoop=1;jettySize=auto;html=1;entryX=0.5;entryY=0;entryDx=0;entryDy=0;" parent="1" source="6ZZ4I7emw9X15yYqETEI-163" target="6ZZ4I7emw9X15yYqETEI-165" edge="1">
          <mxGeometry relative="1" as="geometry" />
        </mxCell>
        <mxCell id="6ZZ4I7emw9X15yYqETEI-162" style="edgeStyle=orthogonalEdgeStyle;rounded=0;orthogonalLoop=1;jettySize=auto;html=1;entryX=0.5;entryY=0;entryDx=0;entryDy=0;" parent="1" source="6ZZ4I7emw9X15yYqETEI-163" target="6ZZ4I7emw9X15yYqETEI-169" edge="1">
          <mxGeometry relative="1" as="geometry" />
        </mxCell>
        <UserObject label="XOR" lucidchartObjectId="uYAeOySeNECC" id="6ZZ4I7emw9X15yYqETEI-163">
          <mxCell style="html=1;overflow=block;blockSpacing=1;whiteSpace=wrap;ellipse;fontSize=16.7;fontColor=#333333;align=center;spacing=3.8;strokeColor=#000000;strokeOpacity=100;rounded=1;absoluteArcSize=1;arcSize=9;strokeWidth=2.3;" parent="1" vertex="1">
            <mxGeometry x="2050.25" y="1374.5" width="75" height="75" as="geometry" />
          </mxCell>
        </UserObject>
        <mxCell id="6ZZ4I7emw9X15yYqETEI-164" style="edgeStyle=orthogonalEdgeStyle;rounded=0;orthogonalLoop=1;jettySize=auto;html=1;" parent="1" source="6ZZ4I7emw9X15yYqETEI-165" target="6ZZ4I7emw9X15yYqETEI-167" edge="1">
          <mxGeometry relative="1" as="geometry" />
        </mxCell>
        <mxCell id="6ZZ4I7emw9X15yYqETEI-165" value="&lt;span style=&quot;color: rgb(51, 51, 51); font-size: 16.6667px;&quot;&gt;Der Incident/Fehler/Frage konnte nicht gelÃ¶st werden.&amp;nbsp;&lt;/span&gt;" style="shape=hexagon;perimeter=hexagonPerimeter2;whiteSpace=wrap;html=1;fixedSize=1;strokeWidth=2.3;fillColor=#dae8fc;strokeColor=#6c8ebf;" parent="1" vertex="1">
          <mxGeometry x="1777.75" y="1464.5" width="260" height="140" as="geometry" />
        </mxCell>
        <mxCell id="6ZZ4I7emw9X15yYqETEI-166" style="edgeStyle=orthogonalEdgeStyle;rounded=0;orthogonalLoop=1;jettySize=auto;html=1;" parent="1" source="6ZZ4I7emw9X15yYqETEI-167" target="6ZZ4I7emw9X15yYqETEI-173" edge="1">
          <mxGeometry relative="1" as="geometry" />
        </mxCell>
        <UserObject label="&lt;span data-lucid-content=&quot;{&amp;quot;t&amp;quot;:&amp;quot;Konnte der Incident/Fehler/Frage durch die Support Teambesprechung gelÃ¶st werden?&amp;quot;,&amp;quot;m&amp;quot;:[{&amp;quot;s&amp;quot;:0,&amp;quot;n&amp;quot;:&amp;quot;a&amp;quot;,&amp;quot;v&amp;quot;:&amp;quot;center&amp;quot;},{&amp;quot;s&amp;quot;:0,&amp;quot;n&amp;quot;:&amp;quot;s&amp;quot;,&amp;quot;v&amp;quot;:22.22222222222222,&amp;quot;e&amp;quot;:81},{&amp;quot;s&amp;quot;:0,&amp;quot;n&amp;quot;:&amp;quot;c&amp;quot;,&amp;quot;v&amp;quot;:&amp;quot;333333ff&amp;quot;,&amp;quot;e&amp;quot;:81}]}&quot; data-lucid-type=&quot;application/vnd.lucid.text&quot;&gt;&lt;span style=&quot;font-size: 16.6667px;&quot;&gt;Support MA, PL und Entwicklung suchen nach Alternative/LÃ¶sung&lt;/span&gt;&lt;/span&gt;" lucidchartObjectId="hZAeEaQijx2j" id="6ZZ4I7emw9X15yYqETEI-167">
          <mxCell style="html=1;overflow=block;blockSpacing=1;whiteSpace=wrap;fontSize=16.7;align=center;spacing=3.8;strokeColor=#d79b00;strokeOpacity=100;rounded=1;absoluteArcSize=1;arcSize=9;strokeWidth=2.3;fillColor=#ffe6cc;" parent="1" vertex="1">
            <mxGeometry x="1796.5" y="1644.5" width="222.5" height="130" as="geometry" />
          </mxCell>
        </UserObject>
        <mxCell id="6ZZ4I7emw9X15yYqETEI-168" style="edgeStyle=orthogonalEdgeStyle;rounded=0;orthogonalLoop=1;jettySize=auto;html=1;" parent="1" source="6ZZ4I7emw9X15yYqETEI-169" target="6ZZ4I7emw9X15yYqETEI-171" edge="1">
          <mxGeometry relative="1" as="geometry" />
        </mxCell>
        <mxCell id="6ZZ4I7emw9X15yYqETEI-169" value="&lt;span style=&quot;color: rgb(51, 51, 51); font-size: 16.6667px;&quot;&gt;Der Incident/Fehler/Frage konnte&amp;nbsp; gelÃ¶st werden.&amp;nbsp;&lt;/span&gt;" style="shape=hexagon;perimeter=hexagonPerimeter2;whiteSpace=wrap;html=1;fixedSize=1;strokeWidth=2.3;fillColor=#dae8fc;strokeColor=#6c8ebf;" parent="1" vertex="1">
          <mxGeometry x="2147.75" y="1464.5" width="260" height="140" as="geometry" />
        </mxCell>
        <mxCell id="6ZZ4I7emw9X15yYqETEI-170" style="edgeStyle=orthogonalEdgeStyle;rounded=0;orthogonalLoop=1;jettySize=auto;html=1;" parent="1" source="6ZZ4I7emw9X15yYqETEI-171" target="6ZZ4I7emw9X15yYqETEI-174" edge="1">
          <mxGeometry relative="1" as="geometry" />
        </mxCell>
        <UserObject label="&lt;span style=&quot;font-size: 16.6667px;&quot;&gt;Feedback an Kunden bzw. Auslieferung der LÃ¶sung.&lt;/span&gt;" lucidchartObjectId="hZAeEaQijx2j" id="6ZZ4I7emw9X15yYqETEI-171">
          <mxCell style="html=1;overflow=block;blockSpacing=1;whiteSpace=wrap;fontSize=16.7;align=center;spacing=3.8;strokeColor=#d79b00;strokeOpacity=100;rounded=1;absoluteArcSize=1;arcSize=9;strokeWidth=2.3;fillColor=#ffe6cc;" parent="1" vertex="1">
            <mxGeometry x="2166.5" y="1819.5" width="222.5" height="130" as="geometry" />
          </mxCell>
        </UserObject>
        <mxCell id="6ZZ4I7emw9X15yYqETEI-172" style="edgeStyle=orthogonalEdgeStyle;rounded=0;orthogonalLoop=1;jettySize=auto;html=1;entryX=0;entryY=0.5;entryDx=0;entryDy=0;" parent="1" source="6ZZ4I7emw9X15yYqETEI-173" target="6ZZ4I7emw9X15yYqETEI-171" edge="1">
          <mxGeometry relative="1" as="geometry" />
        </mxCell>
        <mxCell id="6ZZ4I7emw9X15yYqETEI-173" value="&lt;font color=&quot;#333333&quot;&gt;&lt;span style=&quot;font-size: 16.6667px;&quot;&gt;Alternative/LÃ¶sung gefunden.&lt;/span&gt;&lt;/font&gt;" style="shape=hexagon;perimeter=hexagonPerimeter2;whiteSpace=wrap;html=1;fixedSize=1;strokeWidth=2.3;fillColor=#dae8fc;strokeColor=#6c8ebf;" parent="1" vertex="1">
          <mxGeometry x="1777.75" y="1814.5" width="260" height="140" as="geometry" />
        </mxCell>
        <mxCell id="6ZZ4I7emw9X15yYqETEI-174" value="&lt;font color=&quot;#333333&quot;&gt;&lt;span style=&quot;font-size: 16.6667px;&quot;&gt;Der Kunde wurde informiert bzw. die LÃ¶sung wurde ausgeliefert. Prozess somit beendet.&lt;/span&gt;&lt;/font&gt;" style="shape=hexagon;perimeter=hexagonPerimeter2;whiteSpace=wrap;html=1;fixedSize=1;strokeWidth=2.3;fillColor=#dae8fc;strokeColor=#6c8ebf;" parent="1" vertex="1">
          <mxGeometry x="2147.75" y="1985.5" width="260" height="140" as="geometry" />
        </mxCell>
        <mxCell id="6ZZ4I7emw9X15yYqETEI-175" value="&lt;span style=&quot;color: rgb(51, 51, 51); font-size: 16.6667px;&quot;&gt;Der Incident/Fehler/Frage konnte gelÃ¶st werden. Der Prozess ist somit beendet.&lt;/span&gt;" style="shape=hexagon;perimeter=hexagonPerimeter2;whiteSpace=wrap;html=1;fixedSize=1;strokeWidth=2.3;fillColor=#dae8fc;strokeColor=#6c8ebf;" parent="1" vertex="1">
          <mxGeometry x="1370" y="144.5" width="260" height="140" as="geometry" />
        </mxCell>
      </root>
    </mxGraphModel>
  </diagram>
</mxfile>
